<svg width="52" height="52" viewBox="0 0 52 52" fill="none" xmlns="http://www.w3.org/2000/svg">
<path d="M8.28613 25.9994C8.28613 28.3257 8.74433 30.6292 9.63455 32.7784C10.5248 34.9276 11.8296 36.8804 13.4745 38.5253C15.1195 40.1703 17.0723 41.4751 19.2215 42.3653C21.3707 43.2555 23.6741 43.7137 26.0004 43.7137C28.3267 43.7137 30.6302 43.2555 32.7794 42.3653C34.9286 41.4751 36.8814 40.1703 38.5263 38.5253C40.1712 36.8804 41.4761 34.9276 42.3663 32.7784C43.2565 30.6292 43.7147 28.3257 43.7147 25.9994C43.7147 21.3013 41.8484 16.7956 38.5263 13.4736C35.2042 10.1515 30.6985 8.28516 26.0004 8.28516C21.3023 8.28516 16.7966 10.1515 13.4745 13.4736C10.1525 16.7956 8.28613 21.3013 8.28613 25.9994Z" fill="#D13030"/>
<path d="M17.5019 24.7565C16.7813 26.453 16.6643 28.0715 17.2428 28.3738C17.6418 28.5822 18.2673 28.1078 18.8527 27.2371C19.0846 28.1858 19.6583 29.0448 20.4777 29.7338C19.6182 30.0511 19.0568 30.5693 19.0568 31.1568C19.0568 32.1226 20.5759 32.9035 22.4509 32.9035C24.142 32.9035 25.5426 32.2689 25.8011 31.4346C25.8706 31.4335 26.1376 31.4335 26.2049 31.4346C26.4645 32.2678 27.8662 32.9035 29.5563 32.9035C31.4311 32.9035 32.9503 32.1215 32.9503 31.1568C32.9503 30.5703 32.3895 30.0511 31.5295 29.7338C32.3478 29.0437 32.9236 28.1858 33.1543 27.2371C33.7398 28.1078 34.3637 28.5822 34.7632 28.3738C35.3423 28.0715 35.228 26.4519 34.5047 24.7565C33.9385 23.4232 33.1704 22.4415 32.5828 22.2246C32.5914 22.1402 32.5956 22.0537 32.5956 21.9682C32.5956 21.4533 32.4525 20.9768 32.2079 20.589C32.2121 20.5591 32.2121 20.5281 32.2121 20.4982C32.2121 20.261 32.1555 20.0388 32.0593 19.8465C31.9109 16.3809 29.6545 13.6289 26.0036 13.6289C22.3505 13.6289 20.0931 16.3809 19.9462 19.8465C19.849 20.0399 19.7929 20.2621 19.7929 20.4982C19.7929 20.5281 19.795 20.5591 19.7961 20.589C19.5536 20.9768 19.4105 21.4522 19.4105 21.9682C19.4105 22.0537 19.4137 22.1391 19.4212 22.2246C18.8378 22.4415 18.0671 23.4243 17.5019 24.7565H17.5019Z" fill="white"/>
<path d="M26.0004 38.343C17.1433 38.343 9.77185 31.8287 8.48613 23.3145C8.34328 24.2002 8.28613 25.0859 8.28613 26.0002C8.28613 35.7716 16.229 43.7145 26.0004 43.7145C35.7719 43.7145 43.7147 35.7716 43.7147 26.0002C43.7147 25.0859 43.6576 24.2002 43.5147 23.3145C42.229 31.8287 34.8576 38.343 26.0004 38.343Z" fill="#FFBB00"/>
</svg>
