<svg width="597" height="39" viewBox="0 0 597 39" fill="none" xmlns="http://www.w3.org/2000/svg">
<path fill-rule="evenodd" clip-rule="evenodd" d="M63.5636 6.9834H66.5782C66.8734 6.9834 67.0764 7.22398 67.0291 7.5175L63.6213 29.1776C63.5751 29.4723 63.2972 29.7117 63.002 29.7117H59.9874C59.6922 29.7117 59.4892 29.4711 59.5365 29.1776L62.9432 7.51866C62.9905 7.22398 63.2684 6.9834 63.5636 6.9834Z" fill="#0080FF"/>
<path fill-rule="evenodd" clip-rule="evenodd" d="M40.7778 20.0838H33.2506C31.4677 20.0838 29.777 21.5606 29.4922 23.3655L29.3999 23.9503L29.1105 25.7932L29.0101 26.4309C28.7264 28.2358 29.9523 29.7126 31.7352 29.7126H40.3257C42.1086 29.7126 43.7993 28.2358 44.0841 26.4309L44.1845 25.7932L44.5662 23.3655L45.4519 17.7344C45.7356 15.9295 44.5097 14.4526 42.7268 14.4526H36.8291H34.1363H31.4308C31.1356 14.4526 30.8576 14.6932 30.8115 14.9867L30.4505 17.282C30.4044 17.5767 30.6074 17.8161 30.9015 17.8161H34.8525H36.2998H36.4335H41.3982C41.5482 17.8161 41.6508 17.9416 41.6266 18.0912L41.3971 19.5485C41.351 19.8432 41.0719 20.0838 40.7778 20.0838ZM39.5738 26.3492C39.9878 26.3492 40.3799 26.0107 40.4445 25.5975L40.5033 25.2268L40.7397 23.7224C40.7628 23.5727 40.659 23.4473 40.5114 23.4473H34.9574H34.4477C34.0337 23.4473 33.6416 23.7857 33.577 24.1989L33.3567 25.5975C33.2921 26.0107 33.577 26.3492 33.991 26.3492H34.5019H38.5071H39.5738Z" fill="#0080FF"/>
<path fill-rule="evenodd" clip-rule="evenodd" d="M57.1349 14.4526H51.4886H50.6837H47.9782C47.6829 14.4526 47.405 14.6932 47.3589 14.9867L46.9264 17.7344L46.8238 18.3882L45.1262 29.1774C45.0801 29.4721 45.283 29.7115 45.5771 29.7115H48.7208C49.0161 29.7115 49.294 29.4709 49.3401 29.1774L51.085 18.0912C51.1092 17.9404 51.2522 17.8161 51.3998 17.8161H55.2113H55.4592C55.8006 17.8161 56.0358 18.0947 55.9816 18.4354L55.8813 19.0743L54.2921 29.1785C54.246 29.4732 54.449 29.7126 54.7431 29.7126H57.4405C57.7357 29.7126 58.0136 29.4721 58.0598 29.1785L59.86 17.7344C60.1448 15.9295 58.9178 14.4526 57.1349 14.4526Z" fill="#0080FF"/>
<path fill-rule="evenodd" clip-rule="evenodd" d="M23.7822 29.7126H16.5272C14.7454 29.7126 13.5183 28.2358 13.802 26.4309L15.6023 14.9867C15.6484 14.6921 15.9263 14.4526 16.2215 14.4526H19.3653C19.6605 14.4526 19.8635 14.6932 19.8162 14.9867L18.3112 24.5512L18.1255 25.7287C18.0725 26.0694 18.3078 26.348 18.648 26.348H23.1617C23.5031 26.348 23.826 26.0694 23.879 25.7287L24.0647 24.5512L25.5697 14.9867C25.6158 14.6921 25.8938 14.4526 26.189 14.4526H28.8864C29.1816 14.4526 29.3846 14.6932 29.3373 14.9867L27.5406 26.4309C27.2569 28.2346 25.5651 29.7126 23.7822 29.7126Z" fill="#0080FF"/>
<path fill-rule="evenodd" clip-rule="evenodd" d="M86.4612 14.4533C90.682 14.4533 93.5674 17.8697 92.9055 22.0839C92.2424 26.2969 88.2821 29.7145 84.0601 29.7145C82.2357 29.7145 80.6604 29.0756 79.5129 28.0097C79.4299 27.9326 79.3907 27.8313 79.3976 27.7093C79.4045 27.5872 79.4541 27.4779 79.5475 27.3824C80.2775 26.633 80.8968 25.7754 81.3685 24.843C81.4446 24.6923 81.5784 24.5887 81.7398 24.5541C81.9013 24.5196 82.0443 24.5656 82.1365 24.6807C82.7085 25.3933 83.6023 25.8364 84.6691 25.8364C86.746 25.8364 88.6939 24.1558 89.0202 22.0827C89.3466 20.0096 87.927 18.329 85.85 18.329C83.9321 18.329 82.1239 19.7633 81.6014 21.6154C81.5634 21.7455 81.5334 21.879 81.508 22.0125C81.5046 22.0355 81.5011 22.0597 81.4976 22.0827C80.8345 26.2957 76.8743 29.7133 72.6534 29.7133C68.4326 29.7133 65.5472 26.2969 66.2091 22.0827C66.8723 17.8697 70.8325 14.4521 75.0545 14.4521C76.8801 14.4521 78.4554 15.091 79.6017 16.1569C79.6847 16.234 79.724 16.3353 79.717 16.4573C79.7101 16.5794 79.6605 16.6887 79.5671 16.7843C78.8371 17.5336 78.2178 18.3912 77.7462 19.3236C77.67 19.4744 77.5363 19.578 77.3748 19.6125C77.2134 19.6459 77.0704 19.601 76.9781 19.4859C76.4061 18.7733 75.5123 18.329 74.4456 18.329C72.3686 18.329 70.4208 20.0096 70.0944 22.0827C69.768 24.1558 71.1877 25.8364 73.2647 25.8364C75.3416 25.8364 77.2895 24.1558 77.6158 22.0827L77.6262 22.0229C78.3182 17.8375 82.2611 14.4533 86.4612 14.4533Z" fill="#0080FF"/>
<path fill-rule="evenodd" clip-rule="evenodd" d="M5.32652 20.6837H5.32883L5.35535 20.6457L5.35651 20.6411L5.73708 20.0943H5.73938L14.775 7.12383C14.8373 7.0352 14.9319 6.9834 15.0333 6.9834H15.2294H18.8667C18.9636 6.9834 19.0397 7.03059 19.0766 7.11347C19.1135 7.19635 19.1008 7.29189 19.0408 7.37707L9.72498 20.7504H9.72383L8.35608 29.4446C8.33302 29.592 8.19348 29.7117 8.04586 29.7117H7.8648H4.01644C3.86883 29.7117 3.76734 29.592 3.79041 29.4446L5.11202 21.0417C5.11894 20.9956 5.13509 20.9553 5.16392 20.9151L5.32652 20.6837Z" fill="#0080FF"/>
<path fill-rule="evenodd" clip-rule="evenodd" d="M4.14799 6.9834H3.95079H0.313469C0.216596 6.9834 0.125491 7.03059 0.0632156 7.11347C0.000940685 7.19635 -0.0163579 7.29189 0.0159328 7.37707L4.33251 18.6785C4.36595 18.7671 4.44553 18.8189 4.54586 18.8189C4.64734 18.8189 4.74191 18.7671 4.80418 18.6785L5.93897 17.0497L6.59401 16.1092L7.13834 15.3288L7.28019 15.1251C7.3367 15.0433 7.35169 14.9536 7.32055 14.8718L4.36134 7.12498C4.32789 7.0352 4.24947 6.9834 4.14799 6.9834Z" fill="#0080FF"/>
<path d="M108.144 29V27.596C114.124 22.37 116.88 18.574 116.88 15.298C116.88 13.114 115.736 11.528 113.37 11.528C111.81 11.528 110.458 12.49 109.418 13.738L108.04 12.386C109.6 10.696 111.238 9.578 113.656 9.578C117.062 9.578 119.194 11.814 119.194 15.22C119.194 19.016 116.204 22.89 111.732 27.128C112.72 27.05 113.89 26.946 114.852 26.946H120.13V29H108.144ZM128.65 29.338C125.01 29.338 122.696 26.036 122.696 19.406C122.696 12.776 125.01 9.578 128.65 9.578C132.264 9.578 134.578 12.802 134.578 19.406C134.578 26.036 132.264 29.338 128.65 29.338ZM128.65 27.44C130.808 27.44 132.264 25.022 132.264 19.406C132.264 13.842 130.808 11.502 128.65 11.502C126.466 11.502 125.01 13.842 125.01 19.406C125.01 25.022 126.466 27.44 128.65 27.44ZM136.988 29V27.596C142.968 22.37 145.724 18.574 145.724 15.298C145.724 13.114 144.58 11.528 142.214 11.528C140.654 11.528 139.302 12.49 138.262 13.738L136.884 12.386C138.444 10.696 140.082 9.578 142.5 9.578C145.906 9.578 148.038 11.814 148.038 15.22C148.038 19.016 145.048 22.89 140.576 27.128C141.564 27.05 142.734 26.946 143.696 26.946H148.974V29H136.988ZM153.256 21.85H159.08V16C159.08 15.064 159.184 13.53 159.236 12.542H159.132C158.664 13.478 158.144 14.414 157.598 15.35L153.256 21.85ZM163.864 21.85V23.748H161.342V29H159.08V23.748H150.786V22.188L158.716 9.942H161.342V21.85H163.864Z" fill="#29323A"/>
<path d="M177.968 9.944C176.72 10.728 176.048 11.76 175.952 13.04C176.016 13.008 176.144 12.992 176.336 12.992C176.768 12.992 177.12 13.12 177.392 13.376C177.664 13.616 177.8 13.952 177.8 14.384C177.8 14.816 177.664 15.168 177.392 15.44C177.088 15.696 176.744 15.824 176.36 15.824C175.192 15.824 174.608 15.048 174.608 13.496C174.608 11.4 175.52 9.872 177.344 8.912L177.968 9.944ZM173.24 9.944C171.976 10.728 171.304 11.76 171.224 13.04C171.288 13.008 171.416 12.992 171.608 12.992C172.04 12.992 172.392 13.12 172.664 13.376C172.936 13.616 173.072 13.952 173.072 14.384C173.072 14.816 172.936 15.168 172.664 15.44C172.36 15.696 172.008 15.824 171.608 15.824C170.456 15.824 169.88 15.048 169.88 13.496C169.88 11.384 170.784 9.856 172.592 8.912L173.24 9.944ZM182.651 9.872C184.363 11.12 185.803 12.344 186.971 13.544L185.795 14.72C184.723 13.552 183.283 12.312 181.475 11L182.651 9.872ZM182.219 15.752C183.851 16.984 185.187 18.168 186.227 19.304L185.051 20.48C184.059 19.328 182.723 18.128 181.043 16.88L182.219 15.752ZM186.563 22.808C185.427 25.912 184.211 28.752 182.915 31.328L181.307 30.608C182.827 27.728 184.083 24.928 185.075 22.208L186.563 22.808ZM191.435 14.168H194.843C195.115 13.464 195.339 12.712 195.515 11.912H189.731V18.896C189.635 24.096 188.723 28.256 186.995 31.376L185.699 30.224C187.203 27.504 187.987 23.728 188.051 18.896V10.352H202.451V11.912H197.147C196.987 12.68 196.771 13.432 196.499 14.168H201.179V22.592H197.195V29.384C197.195 30.68 196.563 31.328 195.299 31.328H193.283L192.923 29.768C193.611 29.848 194.211 29.888 194.723 29.888C195.267 29.888 195.539 29.584 195.539 28.976V22.592H191.435V14.168ZM199.643 21.2V19.04H192.971V21.2H199.643ZM192.971 17.744H199.643V15.536H192.971V17.744ZM193.571 24.632C192.947 26.76 192.083 28.6 190.979 30.152L189.587 29.288C190.723 27.768 191.539 26.104 192.035 24.296L193.571 24.632ZM200.195 24.176C201.187 25.856 202.043 27.624 202.763 29.48L201.299 30.128C200.579 28.192 199.731 26.376 198.755 24.68L200.195 24.176ZM209.435 17.264V18.728H215.219V17.264H209.435ZM216.803 18.728H222.611V17.264H216.803V18.728ZM222.611 16.136V14.648H216.803V16.136H222.611ZM224.171 13.424V19.976H207.851V14.528C207.211 14.896 206.619 15.224 206.075 15.512L205.043 14.264C207.923 12.952 210.283 11.24 212.123 9.128L213.755 9.488C213.435 9.872 213.115 10.24 212.795 10.592H221.339V11.672C220.683 12.376 220.067 12.96 219.491 13.424H224.171ZM217.451 13.424C218.043 12.992 218.659 12.48 219.299 11.888H211.499C210.747 12.512 210.099 13.024 209.555 13.424H217.451ZM215.219 14.648H209.435V16.136H215.219V14.648ZM205.115 21.296H226.667V22.616H205.115V21.296ZM223.379 23.936V31.448H221.795V30.632H210.203V31.448H208.619V23.936H223.379ZM210.203 29.36H221.795V27.824H210.203V29.36ZM210.203 26.72H221.795V25.232H210.203V26.72ZM234.467 31.328H232.763V19.424C231.915 21.888 230.827 24.088 229.499 26.024L228.755 24.128C230.595 21.728 231.931 18.944 232.763 15.776V15.752H229.235V14.072H232.763V9.44H234.467V14.072H237.419V15.752H234.467V17.408C235.555 18.368 236.747 19.56 238.043 20.984L237.059 22.448C236.051 21.072 235.187 19.968 234.467 19.136V31.328ZM237.851 10.568H250.307V12.248H245.915C245.627 13.224 245.307 14.152 244.955 15.032V31.376H243.227V18.584C241.723 21.128 239.875 23.376 237.683 25.328L236.603 23.96C240.267 20.728 242.819 16.824 244.259 12.248H237.851V10.568ZM246.563 17.216C248.595 19.76 250.115 21.92 251.123 23.696L249.683 24.704C248.595 22.72 247.107 20.504 245.219 18.056L246.563 17.216ZM260.171 8.912C261.323 8.912 261.899 9.688 261.899 11.24C261.899 13.304 260.995 14.832 259.187 15.824L258.539 14.792C259.787 13.976 260.459 12.944 260.555 11.696C260.427 11.728 260.299 11.744 260.171 11.744C259.771 11.744 259.427 11.616 259.139 11.36C258.851 11.088 258.707 10.752 258.707 10.352C258.707 9.904 258.843 9.552 259.115 9.296C259.371 9.04 259.723 8.912 260.171 8.912ZM255.443 8.912C256.595 8.912 257.171 9.688 257.171 11.24C257.171 13.304 256.267 14.832 254.459 15.824L253.811 14.792C255.059 13.976 255.731 12.944 255.827 11.696C255.699 11.728 255.571 11.744 255.443 11.744C255.043 11.744 254.691 11.616 254.387 11.36C254.115 11.104 253.979 10.768 253.979 10.352C253.979 9.904 254.115 9.552 254.387 9.296C254.643 9.04 254.995 8.912 255.443 8.912ZM277.093 9.248C277.381 9.968 277.637 10.688 277.861 11.408H287.365V12.992H266.173V11.408H276.013C275.821 10.864 275.549 10.256 275.197 9.584L277.093 9.248ZM281.509 31.328L281.101 29.768L283.021 29.84C284.013 29.84 284.509 29.456 284.509 28.688V22.16H269.053V31.4H267.397V20.648H286.165V29.048C286.165 30.568 285.285 31.328 283.525 31.328H281.509ZM270.085 14.552H283.501V19.208H270.085V14.552ZM281.821 17.864V15.896H271.765V17.864H281.821ZM272.077 23.696H281.509V28.496H272.077V23.696ZM279.973 27.2V24.992H273.637V27.2H279.973ZM290.245 14.048H293.509V9.44H295.261V14.048H297.757V15.704H295.261V17.672C296.077 18.648 296.893 19.704 297.709 20.84C299.149 19.256 300.389 17.352 301.429 15.128L302.869 15.848C301.781 18.184 300.485 20.208 298.981 21.92L297.949 21.176L298.501 21.968L297.565 23.336C296.685 21.656 295.917 20.288 295.261 19.232V31.28H293.509V19.112C292.709 21.448 291.669 23.568 290.389 25.472L289.645 23.6C291.453 21.264 292.733 18.632 293.485 15.704H290.245V14.048ZM298.381 12.488H304.261C303.781 11.256 303.309 10.24 302.845 9.44L304.597 9.152C305.109 10.176 305.573 11.288 305.989 12.488H311.293V14.168H298.381V12.488ZM307.621 15.032C309.381 17.192 310.749 19.104 311.725 20.768L310.285 21.752C309.357 20.072 308.021 18.112 306.277 15.872L307.621 15.032ZM308.509 19.856C308.029 22.496 307.173 24.672 305.941 26.384C307.493 27.76 309.461 28.904 311.845 29.816L310.981 31.352C308.437 30.328 306.405 29.112 304.885 27.704C303.189 29.496 301.037 30.76 298.429 31.496L297.445 29.936C300.021 29.264 302.085 28.104 303.637 26.456C302.101 24.648 301.117 22.552 300.685 20.168L302.197 19.712C302.501 21.728 303.333 23.536 304.693 25.136C305.765 23.552 306.493 21.688 306.877 19.544L308.509 19.856ZM324.085 25.952C323.397 24.864 322.637 23.712 321.805 22.496C320.957 24.832 319.909 26.848 318.661 28.544L317.557 27.2C318.805 25.424 319.837 23.32 320.653 20.888C319.549 19.416 318.421 18.016 317.269 16.688L318.349 15.656C319.309 16.664 320.261 17.8 321.205 19.064C321.669 17.336 322.045 15.528 322.333 13.64L323.917 13.928C323.533 16.392 323.029 18.648 322.405 20.696C323.461 22.136 324.405 23.504 325.237 24.8L324.085 25.952ZM331.117 27.056C330.429 25.872 329.621 24.544 328.693 23.072C327.733 25.424 326.605 27.44 325.309 29.12L324.205 27.8C325.565 25.96 326.685 23.824 327.565 21.392C326.381 19.648 325.285 18.16 324.277 16.928L325.357 15.896C326.333 17 327.277 18.208 328.189 19.52C328.685 17.856 329.109 15.92 329.461 13.712L331.093 14C330.661 16.656 330.085 19.064 329.365 21.224C330.373 22.76 331.349 24.32 332.293 25.904L331.117 27.056ZM329.797 31.256L329.341 29.576L331.645 29.648C332.317 29.648 332.653 29.32 332.653 28.664V12.032H316.909V31.352H315.205V10.376H334.357V29.048C334.357 30.52 333.645 31.256 332.221 31.256H329.797ZM346.453 28.256C344.165 29.136 341.485 29.872 338.413 30.464L338.197 28.76C341.317 28.232 344.069 27.52 346.453 26.624V28.256ZM343.765 9.968C342.565 13.088 341.365 15.552 340.165 17.36C341.157 17.216 342.197 17.048 343.285 16.856L344.557 14.288L346.045 14.84C343.997 18.872 342.293 21.76 340.933 23.504C342.645 23.136 344.333 22.648 345.997 22.04V23.6C343.485 24.48 341.125 25.072 338.917 25.376L338.461 23.816C338.781 23.672 339.037 23.504 339.229 23.312C340.141 22.304 341.213 20.68 342.445 18.44C341.117 18.68 339.813 18.896 338.533 19.088L338.101 17.504C338.373 17.376 338.613 17.16 338.821 16.856C340.085 14.696 341.197 12.192 342.157 9.344L343.765 9.968ZM357.757 22.4V31.256H356.101V30.224H349.549V31.256H347.893V22.4H357.757ZM349.549 28.64H356.101V23.984H349.549V28.64ZM351.925 9.656C351.781 10.152 351.557 10.784 351.253 11.552H357.757V12.8C356.877 14.784 355.605 16.536 353.941 18.056C355.621 19.288 357.645 20.24 360.013 20.912L359.029 22.328C356.485 21.56 354.365 20.488 352.669 19.112C350.909 20.424 348.861 21.536 346.525 22.448L345.469 21.056C347.837 20.176 349.821 19.152 351.421 17.984C350.557 17.12 349.781 16.128 349.093 15.008C348.421 15.808 347.701 16.52 346.933 17.144L345.925 15.8C348.053 14.056 349.501 11.904 350.269 9.344L351.925 9.656ZM350.029 13.784C350.765 15.016 351.637 16.088 352.645 17C354.021 15.816 355.101 14.512 355.885 13.088H350.461L350.029 13.784ZM382.741 11.744V16.904H380.965V13.424H364.573V16.88H362.797V11.744H371.917C371.581 10.944 371.213 10.208 370.813 9.536L372.733 9.2C373.133 9.984 373.493 10.832 373.813 11.744H382.741ZM362.221 18.416H368.941C369.805 16.832 370.493 15.528 371.005 14.504L372.781 15.032C372.157 16.232 371.557 17.36 370.981 18.416H383.389V20.096H378.661C377.685 22.608 376.557 24.616 375.277 26.12C377.789 27.192 380.301 28.44 382.813 29.864L381.661 31.376C378.989 29.824 376.445 28.496 374.029 27.392C371.357 29.776 367.789 31.04 363.325 31.184L362.317 29.576C366.413 29.544 369.733 28.56 372.277 26.624C369.989 25.648 367.749 24.808 365.557 24.104C366.373 22.84 367.189 21.504 368.005 20.096H362.221V18.416ZM370.045 20.096C369.325 21.344 368.653 22.448 368.029 23.408C369.757 23.904 371.613 24.568 373.597 25.4C374.893 23.992 375.949 22.224 376.765 20.096H370.045ZM397.405 9.464C400.397 12.6 403.877 15.088 407.845 16.928L406.981 18.464C403.013 16.544 399.613 14.064 396.781 11.024C394.173 13.92 390.741 16.44 386.485 18.584L385.645 17.072C389.853 15.04 393.357 12.504 396.157 9.464H397.405ZM390.085 17.048H403.477V18.704H397.669V22.88H404.605V24.536H397.669V28.976H406.789V30.68H386.797V28.976H395.893V24.536H388.933V22.88H395.893V18.704H390.085V17.048ZM410.557 31.136L410.197 29.504C410.885 29.584 411.485 29.624 411.997 29.624C412.653 29.624 412.981 29.264 412.981 28.544V22.808C411.941 23.224 410.965 23.584 410.053 23.888L409.621 22.184C410.661 21.928 411.781 21.576 412.981 21.128V15.464H410.077V13.808H412.981V9.416H414.661V13.808H417.205V15.464H414.661V20.432C415.733 19.904 416.597 19.456 417.253 19.088V20.768C416.485 21.2 415.621 21.64 414.661 22.088V28.976C414.661 30.416 413.965 31.136 412.573 31.136H410.557ZM418.069 12.872H423.829V9.464H425.509V12.872H431.293V14.528H425.509V18.44H430.357V19.976C429.525 22.616 428.133 24.872 426.181 26.744C427.749 27.96 429.685 29.04 431.989 29.984L431.077 31.424C428.677 30.368 426.653 29.16 425.005 27.8C423.133 29.288 420.853 30.512 418.165 31.472L417.349 30.032C419.909 29.184 422.061 28.08 423.805 26.72C421.805 24.768 420.469 22.552 419.797 20.072H418.525V18.44H423.829V14.528H418.069V12.872ZM421.405 20.072C422.013 22.152 423.197 24.032 424.957 25.712C426.621 24.096 427.845 22.216 428.629 20.072H421.405ZM437.029 23.168V25.4H442.669V23.168H437.029ZM442.669 21.728V19.424H437.029V21.728H442.669ZM437.029 26.864V31.448H435.373V17.912H444.349V29.168C444.349 30.576 443.677 31.28 442.333 31.28H440.341L439.909 29.648L441.757 29.72C442.365 29.72 442.669 29.416 442.669 28.808V26.864H437.029ZM448.741 19.808C447.253 19.808 446.509 19.008 446.509 17.408V9.392H448.213V12.584C450.805 12.184 452.965 11.76 454.693 11.312L455.245 12.824C453.133 13.352 450.789 13.8 448.213 14.168V17.048C448.213 17.848 448.549 18.248 449.221 18.248H452.365C452.845 18.248 453.181 18.128 453.373 17.888C453.597 17.584 453.757 16.696 453.853 15.224L455.461 15.728C455.301 17.632 454.997 18.808 454.549 19.256C454.149 19.624 453.533 19.808 452.701 19.808H448.741ZM448.261 28.616C448.261 29.192 448.573 29.48 449.197 29.48H452.341C452.821 29.48 453.157 29.36 453.349 29.12C453.589 28.816 453.757 27.912 453.853 26.408L455.437 26.912C455.277 28.848 454.973 30.04 454.525 30.488C454.125 30.856 453.501 31.04 452.653 31.04H448.717C447.277 31.04 446.557 30.352 446.557 28.976V20.792H448.261V23.744C450.677 23.504 452.821 23.096 454.693 22.52L455.245 24.056C453.165 24.664 450.837 25.088 448.261 25.328V28.616ZM442.549 11.096C444.037 13.112 445.157 14.8 445.909 16.16L444.493 17.168C444.237 16.64 443.949 16.112 443.629 15.584C441.149 15.984 438.085 16.28 434.437 16.472L433.957 15.032C434.245 14.952 434.509 14.8 434.749 14.576C436.269 13.008 437.501 11.28 438.445 9.392L440.077 9.896C438.957 12.056 437.741 13.736 436.429 14.936C438.557 14.808 440.693 14.608 442.837 14.336C442.293 13.504 441.749 12.704 441.205 11.936L442.549 11.096ZM458.245 15.704H467.581C467.757 14.376 467.861 12.928 467.893 11.36V9.416H469.669V10.976C469.669 12.512 469.565 14.088 469.357 15.704H479.317V17.384H469.861C471.541 22.808 474.845 26.984 479.773 29.912L478.693 31.304C473.861 28.328 470.549 24.136 468.757 18.728C467.269 24.552 463.965 28.8 458.845 31.472L457.765 30.032C462.869 27.52 466.045 23.304 467.293 17.384H458.245V15.704ZM497.677 22.04C496.941 21.512 496.333 20.976 495.853 20.432H489.637C489.109 21.008 488.501 21.544 487.813 22.04H497.677ZM497.629 20.432C498.909 21.456 500.869 22.288 503.509 22.928L502.813 24.392C501.533 23.992 500.389 23.544 499.381 23.048V27.656H497.701V23.432H488.101V27.656H486.421V22.904C485.397 23.432 484.213 23.944 482.869 24.44L481.981 23C484.589 22.296 486.541 21.44 487.837 20.432H482.629V19.04H489.157V17.6H486.085V16.328H489.157V14.888H485.605V13.568H489.157V12.224H484.717V14.648H483.037V10.76H491.989C491.685 10.264 491.381 9.824 491.077 9.44L492.901 9.128C493.285 9.784 493.581 10.328 493.789 10.76H502.525V14.648H500.845V12.224H496.381V13.568H499.957V14.888H496.381V16.328H499.501V17.6H496.381V19.04H502.981V20.432H497.629ZM494.701 12.224H490.861V13.568H494.701V12.224ZM490.861 19.04H494.701V17.6H490.861V19.04ZM494.701 16.328V14.888H490.861V16.328H494.701ZM494.341 27.344C496.965 28.128 499.381 29.08 501.589 30.2L500.725 31.568C498.309 30.288 495.893 29.296 493.477 28.592L494.341 27.344ZM493.453 24.344C493.165 26.888 492.541 28.592 491.581 29.456C490.509 30.544 488.109 31.232 484.381 31.52L483.733 30.056C486.981 29.896 489.133 29.368 490.189 28.472C491.149 27.624 491.701 26.2 491.845 24.2L493.453 24.344Z" fill="#29323A"/>
</svg>
